<?xml version="1.0" encoding="utf-8"?>
<!-- Generator: Adobe Illustrator 19.2.1, SVG Export Plug-In . SVG Version: 6.00 Build 0)  -->
<svg version="1.1" id="Слой_1" xmlns="http://www.w3.org/2000/svg" xmlns:xlink="http://www.w3.org/1999/xlink" x="0px" y="0px"
	 viewBox="0 0 332.9 159.7" style="enable-background:new 0 0 332.9 159.7;" xml:space="preserve">
<g>
	<rect x="24.5" y="63.8" width="2.4" height="45.6"/>
	<rect x="62.2" y="119.6" transform="matrix(0.8658 -0.5004 0.5004 0.8658 -49.0374 58.7543)" width="45.6" height="2.4"/>
	<rect x="83.8" y="29.5" transform="matrix(0.5004 -0.8658 0.8658 0.5004 -2.8537 99.759)" width="2.4" height="45.6"/>
	<path d="M248.9,39.5l-1.2-2.1l-32.8,18.9L165.7,28l-0.7-0.4l-0.7,0.4l-49.1,28.4L65.9,28l-0.7-0.4L64.6,28L16.5,55.7l0,0l-2.3,1.3
		v0.7v2v53.6v2v0.7l2.3,1.3l0,0l48.1,27.8l0.7,0.4l0.7-0.4l48.1-27.8l0,0l2.3-1.3v-0.7v-2V58.5L163.9,31l0,0l1.1-0.6l1.1,0.6l0,0
		l46.5,26.8c-1.2,0.9-2.5,2.3-2.5,4.1c0,1.9,1.4,3.5,4.2,4.9c0.9,0.5,2.9,1.8,2.9,3.1c0,0.9-1,1.8-2.9,2.8c-0.4,0.2-4.2,2.2-4.2,5.2
		c0,1.9,1.4,3.5,4.2,4.9c0.9,0.5,2.9,1.8,2.9,3.1c0,0.9-1,1.8-2.9,2.8c-0.4,0.2-4.2,2.2-4.2,5.2c0,1.9,1.4,3.5,4.2,4.9
		c0.9,0.5,2.9,1.8,2.9,3.1c0,0.9-1,1.8-2.9,2.8l-0.2,0.1c-0.4,0.3-4.3,3.1-4.1,6.7c0.1,2,1.6,3.7,4.2,5l1.1-2.1
		c-1.8-0.9-2.8-1.9-2.9-3c-0.1-1.8,2-3.8,3-4.5c2.7-1.4,4.1-3,4.1-4.9c0-3-3.8-5-4.2-5.2c-1.9-0.9-2.9-1.9-2.9-2.8
		c0-1.2,1.9-2.6,2.9-3.1c2.8-1.4,4.2-3.1,4.2-4.9c0-3-3.8-5-4.2-5.2c-1.9-0.9-2.9-1.9-2.9-2.8c0-1.2,1.9-2.6,2.9-3.1
		c2.8-1.4,4.2-3.1,4.2-4.9c0-3-3.8-5-4.2-5.2c-1.9-0.9-2.9-1.9-2.9-2.8c0-1.2,1.9-2.6,2.9-3.1l-0.5-1.1l0.6,1L248.9,39.5z
		 M113.9,114.7l-47.6,27.5l0,0l-1.1,0.6l-1.1-0.6l0,0l-47.6-27.5v-1.3V59.8v-1.3L64.1,31l0,0l1.1-0.6l1.1,0.6l0,0l47.6,27.5v54.9
		V114.7z"/>
	<polygon points="272.2,36.5 272.1,36.5 257.7,14.2 253.8,14.2 253.8,42.8 257.4,42.8 257.4,20.5 257.5,20.5 271.9,42.8 275.8,42.8
		275.8,14.2 272.2,14.2 	"/>
	<polygon points="297.6,25.9 283.6,25.9 283.6,14.2 279.8,14.2 279.8,42.8 283.6,42.8 283.6,29.3 297.6,29.3 297.6,42.8 301.5,42.8
		301.5,14.2 297.6,14.2 	"/>
	<path d="M308.9,46.8c0.4-0.8,1.1-1.4,1.1-1.4c0.7-0.7,1.8-1.6,1.8-1.6l1.8-1.5c2.5-2.1,3.8-3.9,3.8-3.9c1.3-1.8,1.3-3.7,1.3-3.7
		c0-1.5-0.8-2.8-0.8-2.8c-0.8-1.2-2.2-2-2.2-2c-1.4-0.7-3.3-0.7-3.3-0.7c-1.8,0-3.2,0.7-3.2,0.7c-1.4,0.7-2.3,2-2.3,2
		c-0.8,1.3-1,3-1,3l2.6,0.4c0.1-2,1.1-3,1.1-3c1-1,2.8-1,2.8-1c1.1,0,1.9,0.4,1.9,0.4c0.9,0.4,1.4,1.2,1.4,1.2
		c0.5,0.8,0.5,1.7,0.5,1.7c0,1.4-1,2.9-1,2.9c-1.1,1.5-3.4,3.4-3.4,3.4l-1.6,1.3c-2.4,2-3.5,3.6-3.5,3.6c-1.2,1.6-1.2,3.4-1.2,3.4
		h13.3v-2.4H308.9z"/>
</g>
</svg>
