<svg xmlns:rdf="http://www.w3.org/1999/02/22-rdf-syntax-ns#" xmlns="http://www.w3.org/2000/svg" height="150" shape-rendering="geometricPrecision" width="184" version="1.1" xmlns:cc="http://creativecommons.org/ns#" xmlns:dc="http://purl.org/dc/elements/1.1/" preserveAspectRatio="xMidYMid">
<title>methyl 2-phenyl-2-(piperidin-2-yl)acetate</title>
<metadata>
<rdf:RDF>
<cc:Work rdf:about="">
<dc:format>image/svg+xml</dc:format>
<dc:type rdf:resource="http://purl.org/dc/dcmitype/StillImage"/>
<dc:title>methyl 2-phenyl-2-(piperidin-2-yl)acetate</dc:title>
<cc:license rdf:resource="http://creativecommons.org/licenses/publicdomain/"/>
</cc:Work>
<cc:License rdf:about="http://creativecommons.org/licenses/publicdomain/">
<cc:permits rdf:resource="http://creativecommons.org/ns#Reproduction"/>
<cc:permits rdf:resource="http://creativecommons.org/ns#Distribution"/>
<cc:permits rdf:resource="http://creativecommons.org/ns#DerivativeWorks"/>
</cc:License>
</rdf:RDF>
</metadata>
<path d="M27.53125,2.625,2,17.375,2,46.875,27.53125,61.625,52.46875,47.21875,76.8125,61.28125,76.8125,89.375,60.5625,98.75,61.15625,99.8125,77.40625,90.40625,101.75,104.46875,101.75,132.5625,77.40625,146.625,53.09375,132.5625,53.09375,114.53125,51.875,114.53125,51.875,133.25,77.40625,148,102.96875,133.25,102.96875,103.78125,78.03125,89.375,78.03125,61.28125,102.375,47.21875,118.03125,56.25,118.625,55.21875,105.5625,47.6875,105.5625,28.53125,104.34375,28.53125,104.34375,46.96875,102.375,45.84375,100.375,47,100.375,28.53125,99.15625,28.53125,99.15625,47.6875,77.40625,60.25,53.09375,46.1875,53.09375,17.375,27.53125,2.625zm0,1.375,24.34375,14.0625,0,28.125-24.34375,14.0625-24.34375-14.0625,0-28.125,24.34375-14.0625zm-0.28125,4.78125-19.78125,11.40625,0.625,1.0625,19.75-11.40625-0.59375-1.0625zm75.125,1.6875c-2.01824,0.00002-3.66146,0.65561-4.9375,2-1.27604,1.34441-1.90625,3.21746-1.90625,5.59375,0,1.25652,0.26562,2.4362,0.8125,3.5625,0.54687,1.1263,1.34505,2.00521,2.40625,2.65625,1.06119,0.65105,2.27734,1,3.625,1,1.24348,0,2.39452-0.31706,3.46875-0.90625,1.07421-0.58919,1.91405-1.44792,2.5-2.59375,0.58592-1.14583,0.87499-2.45442,0.875-3.90625-0.00001-1.43228-0.28712-2.71418-0.84375-3.84375-0.55665-1.12954-1.37632-1.99348-2.4375-2.625-1.06121-0.6315-2.2409-0.93748-3.5625-0.9375zm0,1.625c0.944,0.00002,1.80403,0.24024,2.5625,0.71875,0.75846,0.47852,1.32486,1.13087,1.71875,2,0.39387,0.86915,0.59374,1.89714,0.59375,3.0625-0.00001,1.84245-0.45378,3.27865-1.375,4.28125-0.92123,1.0026-2.10548,1.5-3.53125,1.5-1.39975,0-2.54102-0.50716-3.46875-1.5s-1.40625-2.33724-1.40625-4.0625c0-2.15494,0.4707-3.70377,1.4375-4.625,0.96679-0.92121,2.1276-1.37498,3.46875-1.375zm-55.6875,8.625,0,22.8125,1.21875,0,0-22.8125-1.21875,0zm106.125,18.53125c-1.26303,0.00001-2.41733,0.29884-3.46875,0.875-1.05144,0.57618-1.86784,1.42124-2.4375,2.53125-0.56967,1.11004-0.84375,2.41537-0.84375,3.90625,0,1.36719,0.24544,2.65235,0.75,3.84375,0.50456,1.19141,1.25195,2.0905,2.21875,2.71875,0.96679,0.62826,2.20703,0.9375,3.75,0.9375,1.49088,0,2.74934-0.40169,3.78125-1.21875,1.03189-0.81706,1.75911-2.00651,2.15625-3.5625l-1.90625-0.46875c-0.26042,1.20443-0.76433,2.10678-1.5,2.71875-0.73568,0.61198-1.62631,0.90625-2.6875,0.90625-0.8724,0-1.68881-0.20703-2.4375-0.65625-0.7487-0.44921-1.30144-1.12304-1.65625-2.03125-0.35482-0.9082-0.53125-1.97004-0.53125-3.1875,0-0.944,0.16927-1.86132,0.46875-2.75,0.29947-0.88866,0.82356-1.59765,1.5625-2.125,0.73892-0.52733,1.64974-0.81249,2.75-0.8125,0.95703,0.00001,1.74348,0.2435,2.375,0.71875,0.6315,0.47527,1.10546,1.2396,1.4375,2.28125l1.875-0.4375c-0.38412-1.3216-1.0547-2.36457-2.03125-3.09375-0.97657-0.72915-2.19272-1.09374-3.625-1.09375zm8.3125,0.25,0,14.3125,1.875,0,0-6.75,7.4375,0,0,6.75,1.90625,0,0-14.3125-1.90625,0,0,5.875-7.4375,0,0-5.875-1.875,0zm-153.03125,3.5-0.625,1.0625,19.78125,11.40625,0.59375-1.0625-19.75-11.40625zm169.875,4.5625c-0.84961,0.00001-1.58496,0.26418-2.15625,0.75-0.57129,0.48585-0.93262,1.14747-1.09375,2.03125l1.3125,0.25c0.09765-0.64452,0.3457-1.11523,0.6875-1.4375,0.34179-0.32226,0.76855-0.49999,1.28125-0.5,0.51757,0.00001,0.92284,0.15138,1.25,0.46875,0.32714,0.3174,0.49999,0.73536,0.5,1.21875-0.00001,0.61035-0.23829,1.05078-0.6875,1.34375-0.44922,0.29297-0.93848,0.43751-1.5,0.4375-0.05372,0.00001-0.13087,0.00977-0.21875,0l-0.15625,1.15625c0.37109-0.09765,0.68847-0.15624,0.9375-0.15625,0.61034,0.00001,1.10448,0.20069,1.5,0.59375,0.3955,0.39307,0.59374,0.89453,0.59375,1.5-0.00001,0.63476-0.19776,1.16407-0.625,1.59375-0.42725,0.42969-0.94238,0.65625-1.5625,0.65625-0.52246,0-0.97999-0.17041-1.34375-0.5-0.36377-0.32959-0.62988-0.87793-0.78125-1.625l-1.3125,0.1875c0.08789,0.89356,0.43994,1.62598,1.0625,2.1875,0.62255,0.56152,1.40136,0.8125,2.34375,0.8125,1.04492,0,1.91015-0.31689,2.59375-0.96875,0.68359-0.65185,1.03125-1.4375,1.03125-2.375,0-0.69336-0.17969-1.28857-0.53125-1.75-0.35157-0.46142-0.83399-0.75976-1.46875-0.90625,0.48827-0.22461,0.84472-0.52538,1.09375-0.90625,0.24901-0.38085,0.37499-0.78612,0.375-1.25-0.00001-0.48827-0.11377-0.97168-0.375-1.40625s-0.66309-0.77977-1.15625-1.03125c-0.49317-0.25145-1.00782-0.37499-1.59375-0.375zm-34.5625,3.375-7.25,4.1875,0.59375,1.03125,7.28125-4.1875-0.625-1.03125zm-16.09375,2.71875c-2.01824,0.00001-3.66146,0.65561-4.9375,2-1.27604,1.34441-1.90625,3.21746-1.90625,5.59375,0,1.25652,0.26563,2.4362,0.8125,3.5625,0.54688,1.12631,1.34505,2.03646,2.40625,2.6875s2.27734,0.96875,3.625,0.96875c1.24348,0,2.39452-0.28581,3.46875-0.875,1.0742-0.58919,1.91405-1.47916,2.5-2.625,0.58592-1.14583,0.87498-2.42317,0.875-3.875-0.00002-1.43229-0.28713-2.71418-0.84375-3.84375-0.55666-1.12954-1.37632-2.02472-2.4375-2.65625-1.06121-0.63149-2.2409-0.93749-3.5625-0.9375zm0,1.625c0.944,0.00001,1.80402,0.24025,2.5625,0.71875,0.75845,0.47853,1.32486,1.16212,1.71875,2.03125,0.39387,0.86915,0.59374,1.8659,0.59375,3.03125-0.00001,1.84245-0.45379,3.27865-1.375,4.28125-0.92124,1.00261-2.10548,1.5-3.53125,1.5-1.39975,0-2.54102-0.50716-3.46875-1.5-0.92774-0.99284-1.40626-2.33723-1.40625-4.0625-0.00001-2.15494,0.50195-3.70376,1.46875-4.625,0.96679-0.92121,2.09634-1.37499,3.4375-1.375zm-94.9375,41.6875,0,14.3125,1.875,0,0-6.71875,7.4375,0,0,6.71875,1.90625,0,0-14.3125-1.90625,0,0,5.875-7.4375,0,0-5.875-1.875,0zm14.375,0,0,14.3125,1.8125,0,0-11.25,7.5,11.25,1.96875,0,0-14.3125-1.8125,0,0,11.25-7.53125-11.25-1.9375,0z" fill="#000"/>
</svg>
