<?xml version="1.0" encoding="UTF-8" standalone="no"?><!DOCTYPE svg PUBLIC "-//W3C//DTD SVG 1.0//EN"	"http://www.w3.org/TR/2001/REC-SVG-20010904/DTD/svg10.dtd">
<!-- Created with Inkscape (http://www.inkscape.org/) -->
<svg
   xmlns:svg="http://www.w3.org/2000/svg"
   xmlns="http://www.w3.org/2000/svg"
   xmlns:xlink="http://www.w3.org/1999/xlink"
   version="1.0"
   width="1100"
   height="963"
   id="svg2">
  <defs
     id="defs5" />
  <path
     d="M 215.5,910.64775 C 213.3,909.36443 198,900.53911 181.5,891.03595 C 165,881.53278 136.875,865.30386 119,854.97167 C

101.125,844.63949 78.4,831.52246 68.5,825.82273 L 50.5,815.45958 L 50.5,717.52759 L 50.5,619.59561 L 75,605.48947 C 88.475,597.73109 116.15,581.76779

136.5,570.01546 C 156.85,558.26313 183.9147,542.65415 196.64378,535.32885 L 219.78756,522.0101 L 234.14378,530.34442 C 242.0397,534.9283 263.575,547.37803

282,558.01048 C 300.425,568.64294 328.1,584.63896 343.5,593.5572 C 358.9,602.47545 373.75,611.00402 376.5,612.5096 C 379.25,614.01517 381.9275,615.64143

382.45,616.1235 C 382.9725,616.60558 383.91888,617 384.55306,617 C 385.18725,617 396.45975,610.77567 409.60306,603.16815 C 422.74638,595.56063

446.775,581.68546 463,572.33443 C 479.225,562.9834 504.53204,548.39524 519.23788,539.91628 L 545.97575,524.5 L 545.96669,431.5 L 545.95763,338.5 L

528.72882,328.56089 C 519.25297,323.09437 500.925,312.47003 488,304.95123 C 475.075,297.43244 456.85,286.88192 447.5,281.50564 C 438.15,276.12936

430.35154,271.60524 430.1701,271.45205 C 429.91044,271.23284 431.55246,268.24161 433.6282,265.15247 C 433.75664,264.96133 448.18034,273.03588

465.68086,283.09592 C 483.18139,293.15595 506.00583,306.27176 516.40185,312.24216 C 526.79787,318.21256 535.86999,322.88013 536.56212,322.61454 C

537.25424,322.34894 551.24841,314.37066 567.66026,304.88503 C 661.24215,250.79707 657.36811,253.01623 658.22432,253.00744 C 659.47436,252.9946

662.21221,259.18878 661.3351,260.04535 C 660.87579,260.4939 650.825,266.43449 639,273.24665 C 627.175,280.05882 602.425,294.34188 584,304.98678 C

565.575,315.63168 549.26535,325.05189 547.75632,325.92058 C 546.2473,326.78926 545.0098,327.80378 545.00632,328.17508 C 545.00285,328.54637

546.9125,329.90247 549.25,331.18863 C 553.40028,333.47225 553.51173,333.66913 554,339.57949 L 554.5,345.63186 L 572,335.49354 C 581.625,329.91747

601.425,318.44212 616,309.99278 C 630.575,301.54343 649.34438,290.70813 657.70973,285.91433 L 672.91946,277.19833 L 674.92946,280.60501 L 676.93945,284.01169

L 673.21972,286.36719 C 671.17388,287.66272 655.1,297.03583 637.5,307.19632 C 619.9,317.35682 593.90998,332.37649 579.7444,340.57336 L 553.9888,355.47676 L

554.2444,439.95325 L 554.5,524.42974 L 574.5,536.04615 C 585.5,542.43518 611.15,557.27556 631.5,569.02479 C 651.85,580.77401 678.78964,596.37493

691.36587,603.6935 C 703.9421,611.01208 714.63855,617 715.13575,617 C 715.63294,617 717.82186,615.875 720,614.5 C 722.17814,613.125 724.16824,612

724.42245,612 C 724.67666,612 729.9731,609.01755 736.19232,605.37233 C 742.41155,601.72712 763.7,589.40987 783.5,578.00069 C 803.3,566.5915

821.17664,556.26091 823.22587,555.04382 L 826.95173,552.83093 L 828.65509,556.40291 C 829.59194,558.36749 830.16328,560.17006 829.92474,560.4086 C

829.68619,560.64714 820.71804,565.88568 809.99551,572.0498 C 799.27298,578.21393 778.35,590.32054 763.5,598.95339 C 748.65,607.58623 732.56547,616.86584

727.7566,619.57474 L 719.0132,624.5 L 719.02442,717.5 L 719.03563,810.5 L 733.76782,818.91563 C 741.87052,823.54423 762.675,835.51848 780,845.52508 C

864.32619,894.23033 878.45284,902.30566 880.06896,902.72828 C 881.1047,902.99914 893.31287,896.52173 910.15597,886.76473 C 925.74519,877.73408

951.775,862.6992 968,853.35387 C 984.225,844.00854 1007.5125,830.58526 1019.75,823.52437 L 1042,810.68638 L 1042,717.5539 L 1042,624.42143 L

1036.25,621.10186 C 1033.0875,619.2761 1008.9,605.41058 982.5,590.2896 C 956.1,575.16862 933.48288,562.1542 932.23972,561.36867 C 930.10626,560.02056

930.06378,559.77734 931.48261,557.03363 C 932.30935,555.43488 933.32679,553.91606 933.74359,553.65847 C 934.16039,553.40087 945.5763,559.55984

959.11228,567.34506 C 972.64826,575.13027 998.62775,590.05 1016.8445,600.5 L 1049.9658,619.5 L 1049.9766,717.5 L 1049.9874,815.5 L 1047.2437,817.07368 C

1034.9933,824.10007 990.58251,849.71037 958,868.53767 C 936.275,881.09113 910.02454,896.24767 899.66565,902.21887 L 880.83131,913.0756 L 859.66565,900.90208

C 848.02454,894.20665 830.175,883.90965 820,878.01987 C 809.825,872.13009 786.425,858.61724 768,847.99133 C 749.575,837.36541 729.325,825.67915 723,822.02185

L 711.5,815.37222 L 711.245,719.8306 L 710.99,624.28898 L 682.745,608.00337 C 667.21025,599.04629 641.45,584.18722 625.5,574.98323 C 609.55,565.77923

586.26418,552.34273 573.75372,545.12434 C 561.24327,537.90595 550.56802,532 550.03094,532 C 549.14757,532 521.90835,547.56773 463.5,581.45405 C

451.95,588.15493 430.47111,600.58153 415.76914,609.06873 L 389.03828,624.5 L 389.00552,720 L 388.97277,815.5 L 365.23638,829.14438 C 352.18137,836.64879

325.525,852.00723 306,863.27424 C 243.69789,899.22604 219.76936,913.00025 219.63293,912.99054 C 219.55982,912.98534 217.7,911.93108 215.5,910.64775 z M

259,880.97237 C 277.425,870.35669 306.675,853.48823 324,843.48689 C 341.325,833.48556 361.2375,822.02266 368.25,818.01378 L 381,810.72492 L 381,717.54726 L

381,624.3696 L 358.25,611.3083 C 345.7375,604.12458 322.675,590.84364 307,581.7951 C 239.6511,542.91733 224.07224,533.99004 221.65136,532.88701 C

219.27525,531.80438 216.55893,533.17861 184.7931,551.53409 C 137.35178,578.94747 89.212652,606.68913 72.285141,616.37027 L 58.070282,624.5 L 58.059278,717.5

L 58.048274,810.5 L 78.274137,822.12617 C 124.44161,848.66403 167.11303,873.29378 192.5,888.05681 L 219.5,903.75786 L 222.5,902.01573 C 224.15,901.05757

240.575,891.58805 259,880.97237 z M 219.61817,874.93077 C 218.621,873.24269 217.96148,871.7304 218.15257,871.57012 C 218.34366,871.40984 228.625,865.43936

241,858.30239 C 316.47843,814.77208 331.68217,806.00539 342.38802,799.84069 C 353.39554,793.50227 354.37494,793.12505 355.61132,794.74763 C

357.07653,796.67052 358.38038,799.99092 357.84131,800.4265 C 357.45789,800.73631 355.6024,801.80454 313,826.24208 C 296.225,835.86454 269.10319,851.44654

252.72931,860.86873 C 236.35543,870.29093 222.61495,878 222.19492,878 C 221.77488,878 220.61535,876.61884 219.61817,874.93077 z M 79,717.5 L 79,639 L 83,639

L 87,639 L 87,717.5 L 87,796 L 83,796 L 79,796 L 79,717.5 z M 348,638.51394 C 336.70715,631.93411 283.34988,601.15511 279.5,598.99989 C 272.55425,595.11156

218.51911,563.7731 218.08931,563.38387 C 217.86343,563.17932 218.49556,561.495 219.49403,559.64094 L 221.30945,556.26992 L 230.40472,561.4278 C

241.11208,567.49988 284.28104,592.32536 326.49376,616.68639 C 342.99032,626.20659 356.8873,634.1291 357.37593,634.29198 C 358.27997,634.59332

355.63884,640.52446 354.25711,641.29586 C 353.8407,641.52833 351.025,640.27647 348,638.51394 z M 847,527.5 L 847,485 L 853.38736,485 L 859.77472,485 L

881.13736,517.25 L 902.5,549.5 L 902.76385,517.25 L 903.02771,485 L 908.51385,485 L 914,485 L 914,527.5 L 914,570 L 908.15602,570 L 902.31204,570 L

880.90602,537.85794 L 859.5,505.71587 L 859.23615,537.85794 L 858.97229,570 L 852.98615,570 L 847,570 L 847,527.5 z M 847,427.5 L 847,385 L 853,385 L 859,385

L 859,402.5 L 859,420 L 881,420 L 903,420 L 903,402.5 L 903,385 L 908.5,385 L 914,385 L 914,427.5 L 914,470 L 908.5,470 L 903,470 L 903,450 L 903,430 L

881,430 L 859,430 L 859,450 L 859,470 L 853,470 L 847,470 L 847,427.5 z M 375.16568,284.51116 C 353.77046,279.71504 341.1627,258.67275 344.78667,233.80873 C

348.39903,209.02434 367.43597,194.30789 391.01697,198.07052 C 413.16607,201.60468 426.02551,219.27682 424.76938,244.45492 C 424.04293,259.01603

418.69583,270.43264 409.21456,277.66606 C 400.40851,284.38436 386.80227,287.11972 375.16568,284.51116 z M 395.76995,273.45165 C 408.2962,268.21785

415.44147,253.45757 413.54849,236.72579 C 411.45473,218.21946 400.92338,207.63803 384.6492,207.6891 C 368.33748,207.74029 358.29793,217.34974

356.05502,235.05828 C 354.03281,251.02424 358.38495,263.83676 368.12266,270.58501 C 375.84862,275.9391 387.03956,277.09944 395.76995,273.45165 z M

706,284.63074 C 684.82577,280.00458 671.74221,259.42515 674.81951,235.58623 C 676.35342,223.70342 679.2045,216.97323 685.65681,210.00397 C

692.11493,203.02843 699.01615,199.41443 708.422,198.0824 C 725.3927,195.67905 741.93603,203.23088 749.23184,216.7116 C 753.91911,225.37244

755.28434,232.14833 754.81398,244.41681 C 754.43339,254.34386 754.04625,256.24356 751.10271,262.62803 C 745.54207,274.68896 735.46006,282.44735

722.04035,284.99235 C 715.53307,286.22643 713.04705,286.17038 706,284.63074 z M 727.89162,272.55492 C 739.0077,266.92197 744.71411,254.87172

743.71739,239.13551 C 743.03648,228.38521 740.95764,222.36952 735.96257,216.69482 C 724.31568,203.46325 701.21668,204.91543 691.30459,219.50238 C

685.50832,228.03237 684.24663,248.20113 688.86504,258.5 C 695.73881,273.82826 713.06509,280.06809 727.89162,272.55492 z M 381,118 L 381,50 L 385,50 L 389,50

L 389,118 L 389,186 L 385,186 L 381,186 L 381,118 z "
     style="fill:#000000"
     id="path2161" />
</svg>
